# xmcd
# Copyright (C) 1995-1998 Ti Kan
#
# Track frame offsets:
#       150
#       16614
#       130266
#       241325
#       307126
#       311803
#
# Disc length: 4170 seconds
#
# Revision: 0
# Processed by: cddbd v1.5.2PL0 Copyright (c) Steve Scherf et al.
# Submitted via: CD-Import v1.0
#
DISCID=48104806
DTITLE=Sdv - Herr Der Ringe
DYEAR=1900
DGENRE=
TTITLE0=Anmodi Treibstoff2
TTITLE1=Hdr3.1
TTITLE2=Hdr3.2
TTITLE3=Hdr3.3
TTITLE4=Anmodi Hdr3
TTITLE5=Abmodi Hdr3
EXTD=
EXTT0=
EXTT1=
EXTT2=
EXTT3=
EXTT4=
EXTT5=
PLAYORDER=
